<svg width="145" height="32" viewBox="0 0 145 32" fill="none" xmlns="http://www.w3.org/2000/svg">
<path d="M25.513 20.862L27.201 22.549C27.5527 22.9007 27.7502 23.3777 27.7502 23.875C27.7502 24.3723 27.5527 24.8493 27.201 25.201C26.8493 25.5527 26.3723 25.7502 25.875 25.7502C25.3776 25.7502 24.9007 25.5527 24.549 25.201L17.9153 18.5673M25.513 20.862V20.863L20.373 15.7221M25.513 20.862L22.875 23.5L17.9153 18.5673M10.18 10.832C9.65163 10.3033 9.26327 9.65137 9.05 8.935L8.25 6.25L10.935 7.05C11.6514 7.26328 12.3033 7.65163 12.832 8.18M10.18 10.832L15.4327 16.0847M10.18 10.832L12.832 8.18M12.832 8.18L18.278 13.6269M15.4327 16.0847L9.17802 21.236C8.90301 21.4616 8.67829 21.7423 8.51832 22.06C8.35834 22.3777 8.26666 22.7254 8.24917 23.0807C8.23169 23.4359 8.28878 23.7909 8.41679 24.1228C8.54479 24.4547 8.74086 24.7561 8.99239 25.0076C9.24391 25.2592 9.54531 25.4552 9.87719 25.5832C10.2091 25.7112 10.5641 25.7683 10.9194 25.7508C11.2746 25.7334 11.6223 25.6417 11.94 25.4817C12.2577 25.3217 12.5384 25.097 12.764 24.822L17.9153 18.5673M15.4327 16.0847L17.862 14.084C18.0255 13.9494 18.1631 13.7955 18.278 13.6269M18.278 13.6269C18.7489 12.9361 18.8392 11.9989 18.766 11.134C18.6989 10.3522 18.8374 9.56638 19.1677 8.85459C19.4981 8.14281 20.0088 7.52978 20.6492 7.07635C21.2896 6.62291 22.0375 6.34482 22.8186 6.26968C23.5997 6.19454 24.3869 6.32496 25.102 6.648L21.826 9.924C21.9528 10.4721 22.2309 10.9736 22.6286 11.3714C23.0264 11.7692 23.5279 12.0473 24.076 12.174L27.352 8.898C27.608 9.463 27.75 10.09 27.75 10.75C27.7501 11.3733 27.6206 11.9899 27.3699 12.5606C27.1191 13.1313 26.7525 13.6437 26.2934 14.0652C25.8342 14.4868 25.2924 14.8084 24.7024 15.0096C24.1125 15.2108 23.4871 15.2872 22.866 15.234C22.0011 15.1608 21.0637 15.2512 20.373 15.7221M20.373 15.7221C20.2044 15.8371 20.0506 15.9746 19.916 16.138L17.9153 18.5673M10.867 23.125H10.875V23.133H10.867V23.125Z" stroke="white" stroke-width="1.5" stroke-linecap="round" stroke-linejoin="round"/>
<path d="M36.14 9.364V16.924C36.14 17.68 36.326 18.262 36.698 18.67C37.07 19.078 37.616 19.282 38.336 19.282C39.056 19.282 39.608 19.078 39.992 18.67C40.376 18.262 40.568 17.68 40.568 16.924V9.364H43.646V16.906C43.646 18.034 43.406 18.988 42.926 19.768C42.446 20.548 41.798 21.136 40.982 21.532C40.178 21.928 39.278 22.126 38.282 22.126C37.286 22.126 36.392 21.934 35.6 21.55C34.82 21.154 34.202 20.566 33.746 19.786C33.29 18.994 33.062 18.034 33.062 16.906V9.364H36.14ZM53.4574 15.52C54.1894 15.676 54.7774 16.042 55.2214 16.618C55.6654 17.182 55.8874 17.83 55.8874 18.562C55.8874 19.618 55.5154 20.458 54.7714 21.082C54.0394 21.694 53.0134 22 51.6934 22H45.8074V9.364H51.4954C52.7794 9.364 53.7814 9.658 54.5014 10.246C55.2334 10.834 55.5994 11.632 55.5994 12.64C55.5994 13.384 55.4014 14.002 55.0054 14.494C54.6214 14.986 54.1054 15.328 53.4574 15.52ZM48.8854 14.476H50.9014C51.4054 14.476 51.7894 14.368 52.0534 14.152C52.3294 13.924 52.4674 13.594 52.4674 13.162C52.4674 12.73 52.3294 12.4 52.0534 12.172C51.7894 11.944 51.4054 11.83 50.9014 11.83H48.8854V14.476ZM51.1534 19.516C51.6694 19.516 52.0654 19.402 52.3414 19.174C52.6294 18.934 52.7734 18.592 52.7734 18.148C52.7734 17.704 52.6234 17.356 52.3234 17.104C52.0354 16.852 51.6334 16.726 51.1174 16.726H48.8854V19.516H51.1534ZM57.1506 15.664C57.1506 14.416 57.4206 13.306 57.9606 12.334C58.5006 11.35 59.2506 10.588 60.2106 10.048C61.1826 9.496 62.2806 9.22 63.5046 9.22C65.0046 9.22 66.2886 9.616 67.3566 10.408C68.4246 11.2 69.1386 12.28 69.4986 13.648H66.1146C65.8626 13.12 65.5026 12.718 65.0346 12.442C64.5786 12.166 64.0566 12.028 63.4686 12.028C62.5206 12.028 61.7526 12.358 61.1646 13.018C60.5766 13.678 60.2826 14.56 60.2826 15.664C60.2826 16.768 60.5766 17.65 61.1646 18.31C61.7526 18.97 62.5206 19.3 63.4686 19.3C64.0566 19.3 64.5786 19.162 65.0346 18.886C65.5026 18.61 65.8626 18.208 66.1146 17.68H69.4986C69.1386 19.048 68.4246 20.128 67.3566 20.92C66.2886 21.7 65.0046 22.09 63.5046 22.09C62.2806 22.09 61.1826 21.82 60.2106 21.28C59.2506 20.728 58.5006 19.966 57.9606 18.994C57.4206 18.022 57.1506 16.912 57.1506 15.664ZM82.848 15.52C83.58 15.676 84.168 16.042 84.612 16.618C85.056 17.182 85.278 17.83 85.278 18.562C85.278 19.618 84.906 20.458 84.162 21.082C83.43 21.694 82.404 22 81.084 22H75.198V9.364H80.886C82.17 9.364 83.172 9.658 83.892 10.246C84.624 10.834 84.99 11.632 84.99 12.64C84.99 13.384 84.792 14.002 84.396 14.494C84.012 14.986 83.496 15.328 82.848 15.52ZM78.276 14.476H80.292C80.796 14.476 81.18 14.368 81.444 14.152C81.72 13.924 81.858 13.594 81.858 13.162C81.858 12.73 81.72 12.4 81.444 12.172C81.18 11.944 80.796 11.83 80.292 11.83H78.276V14.476ZM80.544 19.516C81.06 19.516 81.456 19.402 81.732 19.174C82.02 18.934 82.164 18.592 82.164 18.148C82.164 17.704 82.014 17.356 81.714 17.104C81.426 16.852 81.024 16.726 80.508 16.726H78.276V19.516H80.544ZM94.9293 19.768H90.2133L89.4573 22H86.2353L90.8073 9.364H94.3713L98.9433 22H95.6853L94.9293 19.768ZM94.1373 17.392L92.5713 12.766L91.0233 17.392H94.1373ZM104.907 22.126C103.983 22.126 103.155 21.976 102.423 21.676C101.691 21.376 101.103 20.932 100.659 20.344C100.227 19.756 99.9988 19.048 99.9748 18.22H103.251C103.299 18.688 103.461 19.048 103.737 19.3C104.013 19.54 104.373 19.66 104.817 19.66C105.273 19.66 105.633 19.558 105.897 19.354C106.161 19.138 106.293 18.844 106.293 18.472C106.293 18.16 106.185 17.902 105.969 17.698C105.765 17.494 105.507 17.326 105.195 17.194C104.895 17.062 104.463 16.912 103.899 16.744C103.083 16.492 102.417 16.24 101.901 15.988C101.385 15.736 100.941 15.364 100.569 14.872C100.197 14.38 100.011 13.738 100.011 12.946C100.011 11.77 100.437 10.852 101.289 10.192C102.141 9.52 103.251 9.184 104.619 9.184C106.011 9.184 107.133 9.52 107.985 10.192C108.837 10.852 109.293 11.776 109.353 12.964H106.023C105.999 12.556 105.849 12.238 105.573 12.01C105.297 11.77 104.943 11.65 104.511 11.65C104.139 11.65 103.839 11.752 103.611 11.956C103.383 12.148 103.269 12.43 103.269 12.802C103.269 13.21 103.461 13.528 103.845 13.756C104.229 13.984 104.829 14.23 105.645 14.494C106.461 14.77 107.121 15.034 107.625 15.286C108.141 15.538 108.585 15.904 108.957 16.384C109.329 16.864 109.515 17.482 109.515 18.238C109.515 18.958 109.329 19.612 108.957 20.2C108.597 20.788 108.069 21.256 107.373 21.604C106.677 21.952 105.855 22.126 104.907 22.126ZM114.487 9.364V22H111.409V9.364H114.487ZM116.196 15.664C116.196 14.416 116.466 13.306 117.006 12.334C117.546 11.35 118.296 10.588 119.256 10.048C120.228 9.496 121.326 9.22 122.55 9.22C124.05 9.22 125.334 9.616 126.402 10.408C127.47 11.2 128.184 12.28 128.544 13.648H125.16C124.908 13.12 124.548 12.718 124.08 12.442C123.624 12.166 123.102 12.028 122.514 12.028C121.566 12.028 120.798 12.358 120.21 13.018C119.622 13.678 119.328 14.56 119.328 15.664C119.328 16.768 119.622 17.65 120.21 18.31C120.798 18.97 121.566 19.3 122.514 19.3C123.102 19.3 123.624 19.162 124.08 18.886C124.548 18.61 124.908 18.208 125.16 17.68H128.544C128.184 19.048 127.47 20.128 126.402 20.92C125.334 21.7 124.05 22.09 122.55 22.09C121.326 22.09 120.228 21.82 119.256 21.28C118.296 20.728 117.546 19.966 117.006 18.994C116.466 18.022 116.196 16.912 116.196 15.664ZM135.001 22.126C134.077 22.126 133.249 21.976 132.517 21.676C131.785 21.376 131.197 20.932 130.753 20.344C130.321 19.756 130.093 19.048 130.069 18.22H133.345C133.393 18.688 133.555 19.048 133.831 19.3C134.107 19.54 134.467 19.66 134.911 19.66C135.367 19.66 135.727 19.558 135.991 19.354C136.255 19.138 136.387 18.844 136.387 18.472C136.387 18.16 136.279 17.902 136.063 17.698C135.859 17.494 135.601 17.326 135.289 17.194C134.989 17.062 134.557 16.912 133.993 16.744C133.177 16.492 132.511 16.24 131.995 15.988C131.479 15.736 131.035 15.364 130.663 14.872C130.291 14.38 130.105 13.738 130.105 12.946C130.105 11.77 130.531 10.852 131.383 10.192C132.235 9.52 133.345 9.184 134.713 9.184C136.105 9.184 137.227 9.52 138.079 10.192C138.931 10.852 139.387 11.776 139.447 12.964H136.117C136.093 12.556 135.943 12.238 135.667 12.01C135.391 11.77 135.037 11.65 134.604 11.65C134.233 11.65 133.933 11.752 133.705 11.956C133.477 12.148 133.363 12.43 133.363 12.802C133.363 13.21 133.555 13.528 133.938 13.756C134.323 13.984 134.923 14.23 135.739 14.494C136.555 14.77 137.215 15.034 137.719 15.286C138.235 15.538 138.679 15.904 139.051 16.384C139.423 16.864 139.609 17.482 139.609 18.238C139.609 18.958 139.423 19.612 139.051 20.2C138.691 20.788 138.163 21.256 137.467 21.604C136.771 21.952 135.949 22.126 135.001 22.126Z" fill="white"/>
</svg>
